<svg width="349" height="491" viewBox="0 0 349 491" fill="none" xmlns="http://www.w3.org/2000/svg">
<g filter="url(#filter0_d_6_84)">
<g clip-path="url(#clip0_6_84)">
<rect x="16" y="65.8433" width="199.386" height="431.522" rx="16.3747" transform="rotate(-19.246 16 65.8433)" fill="#0C1320"/>
<g filter="url(#filter1_dd_6_84)">
<rect x="65.9142" y="181.047" width="181.085" height="143.038" rx="12.0402" transform="rotate(-19.246 65.9142 181.047)" fill="#24CCCC"/>
</g>
<path d="M88.9186 187.979C89.0829 188.45 89.111 188.908 89.0027 189.355C88.8945 189.801 88.6719 190.205 88.3349 190.567C88.8847 190.629 89.367 190.812 89.7818 191.115C90.1951 191.414 90.4955 191.832 90.6831 192.37C90.9838 193.231 90.9288 194.015 90.5178 194.721C90.1053 195.423 89.3951 195.95 88.3871 196.302C87.3792 196.654 86.4923 196.682 85.7266 196.387C84.9608 196.091 84.4283 195.515 84.1291 194.658C83.9415 194.121 83.9156 193.604 84.0514 193.108C84.1872 192.613 84.4494 192.172 84.8382 191.787C84.3492 191.714 83.9235 191.536 83.5611 191.254C83.2031 190.971 82.9419 190.594 82.7775 190.123C82.4892 189.297 82.5351 188.544 82.9151 187.863C83.2936 187.178 83.9558 186.671 84.9016 186.34C85.843 186.012 86.6742 185.995 87.3953 186.292C88.1194 186.582 88.6271 187.144 88.9186 187.979ZM88.7027 192.904C88.5554 192.482 88.3155 192.187 87.9829 192.02C87.6503 191.852 87.2775 191.84 86.8646 191.984C86.4561 192.127 86.1739 192.367 86.018 192.706C85.8606 193.04 85.8564 193.42 86.0052 193.846C86.1494 194.259 86.3855 194.55 86.7137 194.719C87.0418 194.889 87.419 194.899 87.8453 194.75C88.2627 194.605 88.5464 194.369 88.6965 194.042C88.851 193.714 88.8531 193.335 88.7027 192.904ZM87.0262 188.744C86.8945 188.367 86.6891 188.1 86.4102 187.943C86.1298 187.782 85.8075 187.765 85.4434 187.892C85.0838 188.018 84.8428 188.227 84.7205 188.518C84.5982 188.81 84.6052 189.151 84.7417 189.542C84.8765 189.928 85.085 190.204 85.3669 190.37C85.6489 190.535 85.972 190.555 86.3361 190.428C86.7002 190.3 86.9389 190.085 87.0521 189.782C87.1697 189.476 87.1611 189.131 87.0262 188.744ZM92.7594 193.565C92.6524 193.259 92.6677 192.974 92.8053 192.712C92.9473 192.448 93.1738 192.262 93.4846 192.154C93.7999 192.044 94.093 192.048 94.3639 192.168C94.6392 192.286 94.8304 192.498 94.9374 192.805C95.0428 193.107 95.0267 193.389 94.8891 193.651C94.75 193.909 94.5205 194.094 94.2008 194.205C93.8856 194.315 93.5932 194.313 93.3239 194.197C93.053 194.078 92.8648 193.867 92.7594 193.565ZM90.8548 188.11C90.7479 187.804 90.7632 187.519 90.9008 187.257C91.0428 186.993 91.2692 186.807 91.5801 186.699C91.8953 186.589 92.1884 186.593 92.4593 186.713C92.7347 186.831 92.9259 187.043 93.0328 187.35C93.1382 187.652 93.1222 187.934 92.9846 188.196C92.8454 188.454 92.616 188.639 92.2963 188.75C91.981 188.86 91.6887 188.858 91.4193 188.743C91.1484 188.623 90.9603 188.412 90.8548 188.11ZM101.894 186.939C102.362 188.28 102.442 189.402 102.135 190.307C101.828 191.211 101.14 191.85 100.07 192.223C99.0129 192.592 98.0831 192.526 97.2802 192.024C96.4773 191.522 95.8421 190.623 95.3745 189.327L94.7513 187.542C94.2785 186.188 94.1993 185.062 94.5139 184.165C94.8328 183.267 95.5207 182.633 96.5775 182.264C97.6343 181.895 98.5642 181.961 99.3671 182.463C100.168 182.96 100.803 183.857 101.27 185.154L101.894 186.939ZM99.285 185.653C99.0044 184.849 98.6896 184.304 98.3404 184.017C97.9942 183.725 97.5879 183.66 97.1217 183.822C96.6688 183.981 96.3948 184.273 96.2997 184.7C96.2074 185.121 96.2841 185.704 96.5297 186.45L97.3529 188.808C97.6289 189.598 97.9408 190.15 98.2889 190.461C98.6398 190.767 99.0528 190.837 99.5279 190.671C99.9986 190.507 100.274 190.204 100.354 189.763C100.434 189.321 100.346 188.72 100.09 187.957L99.285 185.653ZM109.726 184.204C110.195 185.545 110.275 186.668 109.968 187.572C109.661 188.476 108.973 189.115 107.903 189.489C106.846 189.858 105.916 189.791 105.113 189.289C104.31 188.788 103.675 187.889 103.207 186.592L102.584 184.807C102.111 183.453 102.032 182.327 102.347 181.43C102.666 180.532 103.354 179.898 104.41 179.529C105.467 179.16 106.397 179.227 107.2 179.728C108.001 180.226 108.636 181.123 109.103 182.419L109.726 184.204ZM107.118 182.918C106.837 182.114 106.522 181.569 106.173 181.282C105.827 180.99 105.421 180.925 104.954 181.088C104.502 181.246 104.228 181.538 104.132 181.965C104.04 182.386 104.117 182.969 104.362 183.715L105.186 186.073C105.462 186.864 105.774 187.415 106.122 187.727C106.473 188.033 106.886 188.103 107.361 187.937C107.831 187.772 108.107 187.47 108.187 187.028C108.267 186.587 108.179 185.985 107.922 185.222L107.118 182.918ZM120.812 182.59L117.309 183.813L117.341 186.044L115.216 186.786L115.44 175.828L117.292 175.181L124.308 183.612L122.183 184.353L120.812 182.59ZM117.283 182.006L119.708 181.16L117.222 177.956L117.283 182.006ZM124.438 172.686L129.385 178.85L129.407 170.951L132.031 170.035L135.417 179.733L133.412 180.433L132.487 177.782L131.089 173.136L130.995 181.277L129.623 181.756L124.491 175.447L126.286 179.947L127.212 182.598L125.213 183.295L121.828 173.598L124.438 172.686Z" fill="#0C1320"/>
<path d="M127.64 235.612L123.707 236.985L123.742 239.49L121.356 240.323L121.608 228.019L123.687 227.293L131.564 236.759L129.179 237.592L127.64 235.612ZM123.678 234.956L126.4 234.006L123.608 230.408L123.678 234.956ZM135.249 233.685C135.648 233.546 135.933 233.323 136.106 233.017C136.279 232.71 136.306 232.374 136.189 232.006L138.216 231.299C138.403 231.849 138.429 232.404 138.295 232.966C138.159 233.522 137.879 234.017 137.454 234.451C137.033 234.878 136.513 235.199 135.894 235.415C134.738 235.819 133.697 235.771 132.773 235.271C131.848 234.766 131.159 233.866 130.706 232.57L130.656 232.428C130.221 231.181 130.206 230.071 130.609 229.096C131.013 228.122 131.793 227.433 132.95 227.029C133.962 226.676 134.873 226.682 135.683 227.048C136.497 227.407 137.075 228.064 137.42 229.018L135.393 229.725C135.237 229.31 134.989 229.016 134.649 228.844C134.307 228.667 133.932 228.649 133.523 228.792C133.02 228.968 132.703 229.286 132.572 229.745C132.445 230.198 132.525 230.835 132.813 231.658L132.891 231.882C133.182 232.715 133.518 233.269 133.899 233.544C134.28 233.819 134.73 233.866 135.249 233.685ZM144.203 232.514C143.016 232.928 141.922 232.902 140.92 232.435C139.923 231.967 139.213 231.127 138.79 229.915L138.717 229.706C138.433 228.893 138.337 228.113 138.428 227.365C138.518 226.612 138.789 225.964 139.243 225.419C139.699 224.869 140.296 224.464 141.034 224.207C142.141 223.82 143.133 223.865 144.01 224.342C144.892 224.818 145.556 225.696 146.004 226.977L146.312 227.86L141.159 229.659C141.413 230.163 141.771 230.513 142.231 230.711C142.696 230.906 143.198 230.91 143.737 230.722C144.569 230.431 145.115 229.902 145.373 229.135L146.85 229.954C146.686 230.526 146.372 231.038 145.91 231.49C145.445 231.938 144.876 232.279 144.203 232.514ZM141.638 225.959C141.209 226.109 140.91 226.375 140.742 226.759C140.579 227.14 140.554 227.613 140.667 228.177L143.673 227.128L143.613 226.956C143.436 226.481 143.178 226.157 142.838 225.985C142.496 225.808 142.096 225.799 141.638 225.959ZM147.781 219.787L148.475 221.777L149.859 221.293L150.412 222.879L149.029 223.362L150.439 227.4C150.543 227.699 150.675 227.894 150.835 227.983C150.995 228.073 151.237 228.061 151.561 227.948C151.8 227.865 152.006 227.773 152.179 227.674L152.75 229.312C152.372 229.589 151.958 229.806 151.51 229.963C149.994 230.492 148.954 229.997 148.39 228.477L146.867 224.117L145.686 224.529L145.132 222.944L146.314 222.531L145.619 220.542L147.781 219.787ZM158.577 227.328C158.409 227.168 158.253 226.952 158.107 226.678C157.787 227.444 157.208 227.973 156.371 228.266C155.578 228.543 154.84 228.543 154.156 228.267C153.477 227.989 153.016 227.502 152.772 226.804C152.473 225.946 152.56 225.177 153.033 224.498C153.511 223.816 154.35 223.263 155.55 222.839L156.544 222.491L156.382 222.028C156.252 221.654 156.05 221.389 155.777 221.232C155.51 221.074 155.169 221.067 154.755 221.212C154.391 221.339 154.135 221.526 153.986 221.774C153.843 222.02 153.824 222.295 153.93 222.599L151.769 223.353C151.606 222.885 151.599 222.4 151.749 221.901C151.899 221.401 152.199 220.946 152.649 220.538C153.097 220.124 153.65 219.802 154.308 219.572C155.306 219.224 156.184 219.2 156.943 219.5C157.705 219.793 158.245 220.393 158.562 221.301L159.786 224.808C160.059 225.574 160.369 226.117 160.716 226.438L160.761 226.565L158.577 227.328ZM156.265 226.449C156.584 226.337 156.854 226.165 157.074 225.931C157.293 225.693 157.425 225.431 157.471 225.146L156.986 223.755L156.178 224.037C155.096 224.415 154.651 224.99 154.842 225.762L154.879 225.892C154.973 226.161 155.145 226.35 155.396 226.458C155.646 226.567 155.936 226.563 156.265 226.449ZM161.301 217.299L161.684 218.18C162.012 217.277 162.664 216.655 163.642 216.314C164.684 215.95 165.543 216.111 166.219 216.798C166.5 215.777 167.167 215.083 168.219 214.716C169.096 214.409 169.839 214.438 170.447 214.802C171.053 215.161 171.536 215.854 171.894 216.881L173.698 222.048L171.53 222.805L169.728 217.645C169.568 217.187 169.361 216.884 169.109 216.737C168.855 216.585 168.501 216.589 168.047 216.747C167.399 216.973 167.058 217.439 167.024 218.144L168.972 223.698L166.811 224.453L165.012 219.3C164.848 218.832 164.637 218.525 164.38 218.38C164.122 218.235 163.772 218.24 163.328 218.395C162.715 218.609 162.36 219.018 162.263 219.622L164.261 225.343L162.099 226.098L159.274 218.006L161.301 217.299ZM177.647 220.67L175.478 221.427L172.653 213.335L174.822 212.578L177.647 220.67ZM171.795 211.285C171.682 210.961 171.696 210.657 171.837 210.373C171.983 210.087 172.243 209.879 172.617 209.748C172.986 209.619 173.317 209.621 173.61 209.754C173.902 209.887 174.105 210.115 174.218 210.44C174.333 210.769 174.315 211.077 174.163 211.365C174.017 211.651 173.762 211.857 173.398 211.984C173.034 212.111 172.703 212.109 172.406 211.978C172.113 211.845 171.91 211.615 171.795 211.285ZM178.599 211.259L178.992 212.171C179.318 211.246 179.967 210.614 180.939 210.274C181.797 209.975 182.523 210.004 183.118 210.361C183.712 210.718 184.189 211.396 184.549 212.395L186.374 217.623L184.213 218.377L182.406 213.202C182.246 212.743 182.031 212.447 181.76 212.312C181.487 212.172 181.119 212.183 180.656 212.345C180.047 212.557 179.682 212.976 179.559 213.601L181.551 219.307L179.39 220.061L176.564 211.97L178.599 211.259ZM186.244 213.045C185.964 212.242 185.869 211.473 185.959 210.737C186.049 210.001 186.323 209.36 186.781 208.814C187.244 208.266 187.86 207.858 188.627 207.59C189.719 207.209 190.726 207.232 191.647 207.66C192.573 208.086 193.276 208.859 193.757 209.978L193.965 210.526C194.398 211.767 194.4 212.885 193.97 213.88C193.538 214.87 192.739 215.568 191.572 215.976C190.405 216.383 189.342 216.335 188.383 215.83C187.429 215.325 186.728 214.428 186.278 213.142L186.244 213.045ZM188.461 212.447C188.729 213.215 189.079 213.753 189.511 214.061C189.941 214.364 190.425 214.421 190.963 214.233C191.487 214.05 191.826 213.708 191.981 213.207C192.134 212.7 192.057 212.006 191.749 211.123C191.486 210.37 191.135 209.838 190.696 209.527C190.258 209.216 189.772 209.154 189.238 209.34C188.71 209.525 188.373 209.874 188.229 210.389C188.082 210.899 188.159 211.585 188.461 212.447ZM202.577 207.51C203.013 208.757 203.077 209.856 202.772 210.807C202.47 211.751 201.837 212.392 200.875 212.728C200.057 213.013 199.298 212.96 198.596 212.567L199.927 216.381L197.766 217.136L193.855 205.933L195.859 205.233L196.21 206C196.515 205.189 197.088 204.636 197.931 204.342C198.928 203.994 199.832 204.092 200.643 204.637C201.454 205.181 202.086 206.102 202.538 207.398L202.577 207.51ZM200.361 208.108C200.098 207.355 199.761 206.821 199.349 206.506C198.942 206.19 198.484 206.12 197.976 206.298C197.298 206.535 196.922 206.957 196.849 207.564L198.006 210.877C198.456 211.318 199.02 211.42 199.698 211.184C200.73 210.823 200.951 209.798 200.361 208.108ZM204.902 203.066C205.235 202.178 205.835 201.582 206.703 201.279C208.458 200.667 209.704 201.375 210.441 203.406L212.25 208.588L210.089 209.343L208.3 204.22C208.138 203.757 207.919 203.45 207.643 203.3C207.366 203.145 206.995 203.149 206.531 203.311C205.898 203.532 205.525 203.936 205.411 204.524L207.419 210.275L205.258 211.03L201.247 199.543L203.408 198.788L204.902 203.066ZM217.657 206.868C216.47 207.283 215.376 207.257 214.374 206.79C213.377 206.321 212.667 205.481 212.244 204.27L212.171 204.06C211.887 203.248 211.791 202.467 211.882 201.719C211.972 200.967 212.243 200.318 212.696 199.774C213.153 199.223 213.75 198.819 214.488 198.561C215.595 198.175 216.587 198.22 217.464 198.697C218.345 199.172 219.01 200.05 219.457 201.332L219.765 202.214L214.613 204.013C214.867 204.517 215.224 204.868 215.685 205.065C216.15 205.261 216.652 205.264 217.191 205.076C218.023 204.786 218.569 204.257 218.827 203.49L220.304 204.308C220.14 204.88 219.826 205.392 219.363 205.845C218.899 206.292 218.33 206.633 217.657 206.868ZM215.091 200.314C214.663 200.463 214.364 200.73 214.196 201.113C214.033 201.494 214.008 201.967 214.121 202.532L217.127 201.482L217.067 201.31C216.89 200.835 216.632 200.512 216.292 200.339C215.95 200.162 215.55 200.154 215.091 200.314ZM221.331 196.34L221.724 197.251C222.05 196.326 222.699 195.694 223.672 195.355C224.529 195.055 225.255 195.084 225.85 195.442C226.444 195.799 226.922 196.477 227.281 197.476L229.107 202.703L226.945 203.458L225.138 198.283C224.978 197.824 224.763 197.527 224.492 197.392C224.22 197.253 223.851 197.264 223.388 197.426C222.78 197.638 222.414 198.056 222.291 198.681L224.283 204.387L222.122 205.142L219.297 197.05L221.331 196.34Z" fill="#0C1320"/>
<rect x="163.113" y="187.092" width="9.60325" height="13.8298" rx="4.80163" transform="rotate(12.3094 163.113 187.092)" stroke="#0C1320" stroke-width="0.963218"/>
<line x1="161.658" y1="193.322" x2="171.293" y2="196.079" stroke="#0C1320" stroke-width="0.481609"/>
<path d="M137.31 256.29L135.953 256.764L133.664 250.207L131.9 251.591L131.499 250.441L134.275 248.156L134.449 248.096L137.31 256.29ZM143.587 250.694L144.647 253.729L143.228 254.224L140.376 246.058L143.5 244.967C144.413 244.649 145.219 244.633 145.92 244.922C146.624 245.208 147.113 245.743 147.385 246.524C147.665 247.324 147.619 248.039 147.247 248.668C146.879 249.296 146.221 249.775 145.275 250.105L143.587 250.694ZM143.19 249.556L144.895 248.961C145.4 248.784 145.744 248.532 145.927 248.204C146.109 247.872 146.121 247.481 145.965 247.033C145.811 246.592 145.553 246.287 145.193 246.119C144.831 245.948 144.413 245.941 143.939 246.098L142.195 246.707L143.19 249.556ZM151.893 251.199L150.53 251.675L148.411 245.606L149.774 245.13L151.893 251.199ZM147.777 244.059C147.704 243.85 147.709 243.653 147.791 243.469C147.878 243.284 148.044 243.148 148.291 243.062C148.538 242.976 148.753 242.978 148.935 243.069C149.118 243.161 149.246 243.311 149.32 243.521C149.391 243.726 149.384 243.922 149.298 244.107C149.21 244.289 149.043 244.423 148.796 244.509C148.549 244.595 148.335 244.594 148.154 244.507C147.974 244.414 147.849 244.265 147.777 244.059ZM154.832 250.173L153.469 250.649L150.461 242.033L151.824 241.557L154.832 250.173ZM157.771 249.147L156.408 249.622L153.401 241.007L154.763 240.531L157.771 249.147Z" fill="#0C1320"/>
<path d="M170.214 244.802L167.362 236.636L170.161 235.659C171.085 235.336 171.853 235.276 172.464 235.478C173.076 235.68 173.509 236.147 173.765 236.88C173.896 237.254 173.912 237.625 173.815 237.995C173.717 238.365 173.503 238.7 173.172 239C173.655 238.966 174.074 239.073 174.429 239.322C174.787 239.566 175.047 239.92 175.209 240.384C175.477 241.151 175.436 241.826 175.086 242.409C174.739 242.992 174.108 243.443 173.192 243.763L170.214 244.802ZM170.346 240.622L171.237 243.174L172.813 242.624C173.258 242.468 173.568 242.237 173.741 241.929C173.915 241.621 173.933 241.27 173.796 240.878C173.499 240.029 172.914 239.746 172.04 240.031L170.346 240.622ZM169.982 239.579L171.373 239.093C171.814 238.939 172.124 238.72 172.301 238.436C172.481 238.146 172.507 237.818 172.379 237.452C172.238 237.048 172.021 236.797 171.726 236.698C171.435 236.598 171.047 236.633 170.561 236.803L169.181 237.285L169.982 239.579ZM180.04 241.497C179.177 241.799 178.381 241.773 177.653 241.419C176.928 241.059 176.407 240.427 176.091 239.522L176.032 239.354C175.821 238.748 175.748 238.168 175.814 237.612C175.883 237.051 176.082 236.564 176.412 236.151C176.742 235.738 177.166 235.441 177.686 235.259C178.513 234.971 179.242 235.012 179.875 235.382C180.511 235.752 180.998 236.418 181.335 237.383L181.527 237.933L177.561 239.317C177.777 239.804 178.082 240.142 178.476 240.332C178.873 240.521 179.294 240.537 179.739 240.382C180.363 240.164 180.784 239.734 181 239.092L181.98 239.537C181.863 239.984 181.637 240.38 181.3 240.724C180.965 241.064 180.545 241.321 180.04 241.497ZM178.062 236.355C177.688 236.485 177.431 236.722 177.291 237.065C177.154 237.406 177.136 237.822 177.235 238.311L179.832 237.404L179.797 237.304C179.608 236.858 179.366 236.556 179.072 236.399C178.777 236.238 178.44 236.223 178.062 236.355ZM183.978 239.997L182.212 234.938L181.286 235.261L180.934 234.251L181.859 233.928L181.665 233.373C181.43 232.7 181.436 232.115 181.682 231.618C181.928 231.121 182.387 230.755 183.06 230.52C183.3 230.436 183.566 230.381 183.858 230.354L184.197 231.432C184.037 231.454 183.858 231.5 183.659 231.569C183.009 231.796 182.8 232.244 183.034 232.914L183.222 233.452L184.456 233.021L184.808 234.031L183.575 234.462L185.341 239.521L183.978 239.997ZM186.236 235.741C186.029 235.147 185.96 234.571 186.029 234.014C186.098 233.453 186.301 232.971 186.638 232.568C186.975 232.161 187.419 231.861 187.973 231.668C188.792 231.382 189.547 231.414 190.24 231.763C190.936 232.112 191.457 232.714 191.803 233.571L191.92 233.889C192.129 234.487 192.199 235.062 192.132 235.615C192.069 236.165 191.867 236.645 191.527 237.053C191.191 237.46 190.742 237.761 190.181 237.957C189.325 238.256 188.54 238.211 187.825 237.823C187.113 237.43 186.591 236.758 186.26 235.809L186.236 235.741ZM187.64 235.383C187.858 236.008 188.158 236.452 188.54 236.718C188.921 236.979 189.341 237.029 189.801 236.869C190.261 236.708 190.556 236.404 190.685 235.956C190.817 235.507 190.763 234.937 190.521 234.245C190.307 233.632 190.005 233.192 189.614 232.926C189.227 232.658 188.807 232.603 188.355 232.761C187.91 232.917 187.618 233.218 187.481 233.664C187.342 234.107 187.395 234.68 187.64 235.383ZM195.604 230.526C195.414 230.559 195.223 230.609 195.033 230.675C194.408 230.893 194.071 231.279 194.021 231.834L195.471 235.984L194.108 236.46L191.989 230.391L193.29 229.937L193.561 230.604C193.706 229.962 194.07 229.539 194.653 229.335C194.847 229.268 195.017 229.238 195.163 229.246L195.604 230.526ZM200.748 234.268C199.885 234.569 199.089 234.543 198.361 234.189C197.636 233.829 197.115 233.197 196.799 232.292L196.74 232.124C196.529 231.518 196.456 230.938 196.522 230.382C196.591 229.821 196.79 229.334 197.12 228.921C197.45 228.508 197.874 228.211 198.394 228.029C199.221 227.741 199.95 227.782 200.583 228.152C201.219 228.522 201.706 229.189 202.043 230.153L202.235 230.703L198.269 232.087C198.485 232.574 198.79 232.912 199.184 233.102C199.581 233.291 200.002 233.307 200.447 233.152C201.071 232.934 201.492 232.504 201.708 231.862L202.688 232.307C202.571 232.754 202.345 233.15 202.008 233.494C201.673 233.834 201.253 234.091 200.748 234.268ZM198.77 229.125C198.396 229.255 198.139 229.492 197.999 229.835C197.862 230.176 197.844 230.592 197.943 231.081L200.54 230.175L200.505 230.074C200.316 229.628 200.074 229.326 199.78 229.169C199.485 229.008 199.148 228.993 198.77 229.125ZM210.696 226.786L207.409 227.934L208.618 231.394L207.199 231.89L204.347 223.723L209.536 221.912L209.935 223.056L206.166 224.372L207.014 226.801L210.301 225.653L210.696 226.786ZM211.925 226.772C211.717 226.178 211.648 225.602 211.718 225.045C211.787 224.484 211.99 224.002 212.327 223.599C212.663 223.192 213.108 222.892 213.661 222.699C214.48 222.413 215.236 222.445 215.929 222.794C216.625 223.143 217.146 223.746 217.491 224.602L217.608 224.92C217.817 225.518 217.888 226.094 217.821 226.646C217.757 227.196 217.555 227.676 217.216 228.084C216.879 228.491 216.431 228.792 215.87 228.988C215.014 229.287 214.228 229.242 213.514 228.854C212.802 228.461 212.28 227.789 211.948 226.84L211.925 226.772ZM213.329 226.414C213.547 227.039 213.847 227.484 214.229 227.749C214.61 228.01 215.03 228.061 215.49 227.9C215.95 227.739 216.244 227.435 216.373 226.987C216.506 226.538 216.452 225.968 216.21 225.276C215.996 224.663 215.693 224.223 215.303 223.957C214.916 223.689 214.496 223.635 214.043 223.793C213.598 223.948 213.307 224.249 213.169 224.696C213.03 225.138 213.083 225.711 213.329 226.414ZM218.465 224.489C218.257 223.894 218.188 223.319 218.258 222.762C218.327 222.201 218.53 221.719 218.867 221.316C219.203 220.909 219.648 220.609 220.201 220.415C221.02 220.13 221.776 220.161 222.469 220.511C223.165 220.86 223.686 221.462 224.031 222.319L224.148 222.637C224.357 223.235 224.428 223.81 224.361 224.362C224.297 224.913 224.095 225.393 223.755 225.801C223.419 226.208 222.971 226.509 222.41 226.705C221.554 227.004 220.768 226.959 220.054 226.571C219.342 226.178 218.82 225.506 218.488 224.556L218.465 224.489ZM219.869 224.131C220.087 224.755 220.387 225.2 220.769 225.465C221.15 225.727 221.57 225.777 222.03 225.617C222.49 225.456 222.784 225.152 222.913 224.704C223.046 224.255 222.991 223.685 222.75 222.993C222.536 222.38 222.233 221.94 221.843 221.674C221.456 221.406 221.036 221.351 220.583 221.509C220.138 221.665 219.847 221.966 219.709 222.412C219.57 222.855 219.623 223.428 219.869 224.131ZM225.009 222.217C224.682 221.282 224.637 220.457 224.874 219.741C225.109 219.021 225.592 218.534 226.321 218.279C226.964 218.054 227.562 218.097 228.115 218.408L227.03 215.3L228.393 214.825L231.401 223.44L230.167 223.871L229.88 223.266C229.645 223.902 229.187 224.338 228.507 224.576C227.796 224.824 227.121 224.739 226.48 224.321C225.842 223.902 225.352 223.2 225.009 222.217ZM226.413 221.859C226.628 222.476 226.914 222.917 227.271 223.183C227.631 223.443 228.029 223.497 228.467 223.344C229.024 223.15 229.345 222.759 229.429 222.171L228.524 219.58C228.104 219.181 227.615 219.079 227.058 219.274C226.617 219.428 226.338 219.722 226.221 220.157C226.104 220.589 226.167 221.156 226.413 221.859Z" fill="#0C1320"/>
<g filter="url(#filter2_dd_6_84)">
<circle cx="147.751" cy="281.025" r="13.9667" transform="rotate(-19.246 147.751 281.025)" fill="#0C1320"/>
</g>
<g filter="url(#filter3_dd_6_84)">
<circle cx="240.054" cy="248.798" r="13.9667" transform="rotate(-19.246 240.054 248.798)" fill="#0C1320"/>
</g>
<path d="M142.942 280.903L141.625 281.363L142.893 284.995L142.165 285.249L140.897 281.617L139.591 282.073L139.385 281.481L142.736 280.311L142.942 280.903ZM146.44 282.653L144.804 283.225L144.805 284.328L144.042 284.594L144.163 279.813L144.822 279.583L147.895 283.249L147.129 283.516L146.44 282.653ZM144.803 282.561L146.028 282.133L144.804 280.595L144.803 282.561ZM148.952 280.832L148.651 281.507L149.11 282.824L148.376 283.081L146.902 278.857L147.636 278.6L148.327 280.582L148.558 279.938L149.278 278.027L150.165 277.717L149.249 280.136L151.73 281.91L150.86 282.214L148.952 280.832ZM153.935 279.024L152.2 279.63L152.654 280.93L154.682 280.222L154.887 280.808L152.125 281.772L150.65 277.548L153.392 276.591L153.598 277.183L151.591 277.883L151.998 279.05L153.733 278.444L153.935 279.024Z" fill="#62F4F4"/>
<path d="M236.181 250.309L234.446 250.915L234.9 252.215L236.928 251.507L237.132 252.093L234.37 253.057L232.896 248.833L235.637 247.876L235.844 248.468L233.836 249.168L234.243 250.335L235.978 249.729L236.181 250.309ZM237.73 251.884L236.255 247.66L237.503 247.224C237.876 247.094 238.236 247.062 238.582 247.127C238.93 247.193 239.237 247.35 239.502 247.6C239.767 247.851 239.969 248.173 240.107 248.568L240.181 248.779C240.32 249.18 240.363 249.56 240.309 249.919C240.256 250.278 240.11 250.592 239.872 250.86C239.635 251.127 239.327 251.327 238.946 251.46L237.73 251.884ZM237.196 247.996L238.259 251.042L238.738 250.875C239.123 250.74 239.376 250.517 239.497 250.206C239.62 249.892 239.604 249.509 239.451 249.057L239.369 248.822C239.209 248.364 238.987 248.048 238.703 247.876C238.42 247.704 238.088 247.684 237.709 247.816L237.196 247.996ZM242.386 250.258L241.655 250.514L240.18 246.289L240.912 246.034L242.386 250.258ZM244.985 245.276L243.668 245.736L244.936 249.368L244.208 249.622L242.94 245.99L241.635 246.446L241.428 245.854L244.779 244.684L244.985 245.276Z" fill="#62F4F4"/>
<g clip-path="url(#clip1_6_84)">
<path d="M213.27 142.863L214.179 142.545L221.454 140.005" stroke="black" stroke-width="0.963218" stroke-linecap="round" stroke-linejoin="round"/>
<path d="M215.544 142.069L215.226 141.16C215.142 140.919 215.157 140.654 215.268 140.424C215.379 140.194 215.577 140.017 215.818 139.933L217.637 139.298C217.878 139.214 218.143 139.229 218.373 139.34C218.603 139.451 218.779 139.649 218.864 139.89L219.181 140.799M220.545 140.323L222.768 146.689C222.852 146.93 222.837 147.195 222.726 147.425C222.615 147.655 222.417 147.831 222.176 147.915L217.629 149.503C217.388 149.587 217.123 149.572 216.893 149.461C216.663 149.35 216.486 149.152 216.402 148.911L214.179 142.545L220.545 140.323Z" stroke="black" stroke-width="0.963218" stroke-linecap="round" stroke-linejoin="round"/>
<path d="M217.247 144.025L218.199 146.753" stroke="black" stroke-width="0.963218" stroke-linecap="round" stroke-linejoin="round"/>
<path d="M219.065 143.39L220.018 146.118" stroke="black" stroke-width="0.963218" stroke-linecap="round" stroke-linejoin="round"/>
</g>
<g clip-path="url(#clip2_6_84)">
<path d="M227.657 122.706C231.006 121.537 232.772 117.875 231.603 114.527C230.434 111.179 226.772 109.412 223.424 110.581C220.076 111.75 218.309 115.412 219.478 118.76C220.647 122.108 224.309 123.875 227.657 122.706Z" stroke="#62F4F4" stroke-width="0.963218" stroke-linecap="round" stroke-linejoin="round"/>
<path d="M226.725 114.19L224.357 119.097" stroke="#62F4F4" stroke-width="0.963218" stroke-linecap="round" stroke-linejoin="round"/>
<path d="M223.087 115.46L227.995 117.827" stroke="#62F4F4" stroke-width="0.963218" stroke-linecap="round" stroke-linejoin="round"/>
</g>
</g>
</g>
<defs>
<filter id="filter0_d_6_84" x="-3.68224" y="-4.25317" width="356.726" height="499.37" filterUnits="userSpaceOnUse" color-interpolation-filters="sRGB">
<feFlood flood-opacity="0" result="BackgroundImageFix"/>
<feColorMatrix in="SourceAlpha" type="matrix" values="0 0 0 0 0 0 0 0 0 0 0 0 0 0 0 0 0 0 127 0" result="hardAlpha"/>
<feOffset dx="-6.56075" dy="8.74766"/>
<feGaussianBlur stdDeviation="6.56075"/>
<feComposite in2="hardAlpha" operator="out"/>
<feColorMatrix type="matrix" values="0 0 0 0 0 0 0 0 0 0 0 0 0 0 0 0 0 0 0.25 0"/>
<feBlend mode="normal" in2="BackgroundImageFix" result="effect1_dropShadow_6_84"/>
<feBlend mode="normal" in="SourceGraphic" in2="effect1_dropShadow_6_84" result="shape"/>
</filter>
<filter id="filter1_dd_6_84" x="65.8355" y="121.76" width="219.234" height="194.891" filterUnits="userSpaceOnUse" color-interpolation-filters="sRGB">
<feFlood flood-opacity="0" result="BackgroundImageFix"/>
<feColorMatrix in="SourceAlpha" type="matrix" values="0 0 0 0 0 0 0 0 0 0 0 0 0 0 0 0 0 0 127 0" result="hardAlpha"/>
<feOffset dx="2.40805" dy="1.92644"/>
<feGaussianBlur stdDeviation="0.963218"/>
<feComposite in2="hardAlpha" operator="out"/>
<feColorMatrix type="matrix" values="0 0 0 0 0 0 0 0 0 0 0 0 0 0 0 0 0 0 0.27 0"/>
<feBlend mode="normal" in2="BackgroundImageFix" result="effect1_dropShadow_6_84"/>
<feColorMatrix in="SourceAlpha" type="matrix" values="0 0 0 0 0 0 0 0 0 0 0 0 0 0 0 0 0 0 127 0" result="hardAlpha"/>
<feOffset dx="-1.44483" dy="-0.963218"/>
<feGaussianBlur stdDeviation="0.963218"/>
<feComposite in2="hardAlpha" operator="out"/>
<feColorMatrix type="matrix" values="0 0 0 0 0.525927 0 0 0 0 0.839629 0 0 0 0 0.882406 0 0 0 0.09 0"/>
<feBlend mode="normal" in2="effect1_dropShadow_6_84" result="effect2_dropShadow_6_84"/>
<feBlend mode="normal" in="SourceGraphic" in2="effect2_dropShadow_6_84" result="shape"/>
</filter>
<filter id="filter2_dd_6_84" x="130.891" y="264.165" width="34.6834" height="34.6835" filterUnits="userSpaceOnUse" color-interpolation-filters="sRGB">
<feFlood flood-opacity="0" result="BackgroundImageFix"/>
<feColorMatrix in="SourceAlpha" type="matrix" values="0 0 0 0 0 0 0 0 0 0 0 0 0 0 0 0 0 0 127 0" result="hardAlpha"/>
<feOffset dx="1.44483" dy="1.44483"/>
<feGaussianBlur stdDeviation="1.20402"/>
<feComposite in2="hardAlpha" operator="out"/>
<feColorMatrix type="matrix" values="0 0 0 0 0 0 0 0 0 0 0 0 0 0 0 0 0 0 0.25 0"/>
<feBlend mode="normal" in2="BackgroundImageFix" result="effect1_dropShadow_6_84"/>
<feColorMatrix in="SourceAlpha" type="matrix" values="0 0 0 0 0 0 0 0 0 0 0 0 0 0 0 0 0 0 127 0" result="hardAlpha"/>
<feOffset dx="-0.963218" dy="-0.963218"/>
<feGaussianBlur stdDeviation="0.963218"/>
<feComposite in2="hardAlpha" operator="out"/>
<feColorMatrix type="matrix" values="0 0 0 0 1 0 0 0 0 1 0 0 0 0 1 0 0 0 0.56 0"/>
<feBlend mode="normal" in2="effect1_dropShadow_6_84" result="effect2_dropShadow_6_84"/>
<feBlend mode="normal" in="SourceGraphic" in2="effect2_dropShadow_6_84" result="shape"/>
</filter>
<filter id="filter3_dd_6_84" x="223.194" y="231.938" width="34.6834" height="34.6835" filterUnits="userSpaceOnUse" color-interpolation-filters="sRGB">
<feFlood flood-opacity="0" result="BackgroundImageFix"/>
<feColorMatrix in="SourceAlpha" type="matrix" values="0 0 0 0 0 0 0 0 0 0 0 0 0 0 0 0 0 0 127 0" result="hardAlpha"/>
<feOffset dx="1.44483" dy="1.44483"/>
<feGaussianBlur stdDeviation="1.20402"/>
<feComposite in2="hardAlpha" operator="out"/>
<feColorMatrix type="matrix" values="0 0 0 0 0 0 0 0 0 0 0 0 0 0 0 0 0 0 0.25 0"/>
<feBlend mode="normal" in2="BackgroundImageFix" result="effect1_dropShadow_6_84"/>
<feColorMatrix in="SourceAlpha" type="matrix" values="0 0 0 0 0 0 0 0 0 0 0 0 0 0 0 0 0 0 127 0" result="hardAlpha"/>
<feOffset dx="-0.963218" dy="-0.963218"/>
<feGaussianBlur stdDeviation="0.963218"/>
<feComposite in2="hardAlpha" operator="out"/>
<feColorMatrix type="matrix" values="0 0 0 0 1 0 0 0 0 1 0 0 0 0 1 0 0 0 0.56 0"/>
<feBlend mode="normal" in2="effect1_dropShadow_6_84" result="effect2_dropShadow_6_84"/>
<feBlend mode="normal" in="SourceGraphic" in2="effect2_dropShadow_6_84" result="shape"/>
</filter>
<clipPath id="clip0_6_84">
<rect x="16" y="65.8433" width="199.386" height="431.522" rx="16.3747" transform="rotate(-19.246 16 65.8433)" fill="white"/>
</clipPath>
<clipPath id="clip1_6_84">
<rect width="11.5586" height="11.5586" fill="white" transform="translate(210.953 140.611) rotate(-19.246)"/>
</clipPath>
<clipPath id="clip2_6_84">
<rect width="15.4115" height="15.4115" fill="white" transform="translate(215.726 111.908) rotate(-19.246)"/>
</clipPath>
</defs>
</svg>
